<mxfile host="app.diagrams.net" modified="2023-08-04T15:34:33.788Z" agent="Mozilla/5.0 (Windows NT 10.0; Win64; x64) AppleWebKit/537.36 (KHTML, like Gecko) Chrome/115.0.0.0 Safari/537.36" etag="12vDo95ocCZh4I54T_K4" version="21.6.2" type="google">
  <diagram name="Page-1" id="cd6HidMPWzCVq3saGzCR">
    <mxGraphModel grid="1" page="1" gridSize="10" guides="1" tooltips="1" connect="1" arrows="1" fold="1" pageScale="1" pageWidth="827" pageHeight="1169" math="0" shadow="0">
      <root>
        <mxCell id="0" />
        <mxCell id="1" parent="0" />
        <mxCell id="G0kwRpXOu8s8iO1yLka8-1" value="" style="sketch=0;outlineConnect=0;fontColor=#232F3E;gradientColor=none;fillColor=#3F8624;strokeColor=none;dashed=0;verticalLabelPosition=bottom;verticalAlign=top;align=center;html=1;fontSize=12;fontStyle=0;aspect=fixed;pointerEvents=1;shape=mxgraph.aws4.bucket;" vertex="1" parent="1">
          <mxGeometry x="140" y="315" width="67.31" height="70" as="geometry" />
        </mxCell>
        <mxCell id="G0kwRpXOu8s8iO1yLka8-2" value="csv file" style="shape=tape;whiteSpace=wrap;html=1;" vertex="1" parent="1">
          <mxGeometry x="10" y="315" width="100" height="85" as="geometry" />
        </mxCell>
        <mxCell id="G0kwRpXOu8s8iO1yLka8-3" value="Lambda to glue crawler" style="sketch=0;outlineConnect=0;fontColor=#232F3E;gradientColor=none;strokeColor=#ffffff;fillColor=#232F3E;dashed=0;verticalLabelPosition=middle;verticalAlign=bottom;align=center;html=1;whiteSpace=wrap;fontSize=10;fontStyle=1;spacing=3;shape=mxgraph.aws4.productIcon;prIcon=mxgraph.aws4.lambda;" vertex="1" parent="1">
          <mxGeometry x="250" y="315" width="70" height="105" as="geometry" />
        </mxCell>
        <mxCell id="G0kwRpXOu8s8iO1yLka8-4" value="" style="sketch=0;points=[[0,0,0],[0.25,0,0],[0.5,0,0],[0.75,0,0],[1,0,0],[0,1,0],[0.25,1,0],[0.5,1,0],[0.75,1,0],[1,1,0],[0,0.25,0],[0,0.5,0],[0,0.75,0],[1,0.25,0],[1,0.5,0],[1,0.75,0]];outlineConnect=0;fontColor=#232F3E;gradientColor=#945DF2;gradientDirection=north;fillColor=#5A30B5;strokeColor=#ffffff;dashed=0;verticalLabelPosition=bottom;verticalAlign=top;align=center;html=1;fontSize=12;fontStyle=0;aspect=fixed;shape=mxgraph.aws4.resourceIcon;resIcon=mxgraph.aws4.glue;" vertex="1" parent="1">
          <mxGeometry x="375" y="311" width="78" height="78" as="geometry" />
        </mxCell>
        <mxCell id="G0kwRpXOu8s8iO1yLka8-5" value="" style="sketch=0;points=[[0,0,0],[0.25,0,0],[0.5,0,0],[0.75,0,0],[1,0,0],[0,1,0],[0.25,1,0],[0.5,1,0],[0.75,1,0],[1,1,0],[0,0.25,0],[0,0.5,0],[0,0.75,0],[1,0.25,0],[1,0.5,0],[1,0.75,0]];points=[[0,0,0],[0.25,0,0],[0.5,0,0],[0.75,0,0],[1,0,0],[0,1,0],[0.25,1,0],[0.5,1,0],[0.75,1,0],[1,1,0],[0,0.25,0],[0,0.5,0],[0,0.75,0],[1,0.25,0],[1,0.5,0],[1,0.75,0]];outlineConnect=0;fontColor=#232F3E;gradientColor=#F34482;gradientDirection=north;fillColor=#BC1356;strokeColor=#ffffff;dashed=0;verticalLabelPosition=bottom;verticalAlign=top;align=center;html=1;fontSize=12;fontStyle=0;aspect=fixed;shape=mxgraph.aws4.resourceIcon;resIcon=mxgraph.aws4.cloudwatch_2;" vertex="1" parent="1">
          <mxGeometry x="378" y="170" width="78" height="78" as="geometry" />
        </mxCell>
        <mxCell id="G0kwRpXOu8s8iO1yLka8-6" value="" style="sketch=0;points=[[0,0,0],[0.25,0,0],[0.5,0,0],[0.75,0,0],[1,0,0],[0,1,0],[0.25,1,0],[0.5,1,0],[0.75,1,0],[1,1,0],[0,0.25,0],[0,0.5,0],[0,0.75,0],[1,0.25,0],[1,0.5,0],[1,0.75,0]];outlineConnect=0;fontColor=#232F3E;gradientColor=#FF4F8B;gradientDirection=north;fillColor=#BC1356;strokeColor=#ffffff;dashed=0;verticalLabelPosition=bottom;verticalAlign=top;align=center;html=1;fontSize=12;fontStyle=0;aspect=fixed;shape=mxgraph.aws4.resourceIcon;resIcon=mxgraph.aws4.sns;" vertex="1" parent="1">
          <mxGeometry x="246" y="170" width="78" height="78" as="geometry" />
        </mxCell>
        <mxCell id="G0kwRpXOu8s8iO1yLka8-7" value="Lambda to Glue ETL" style="sketch=0;outlineConnect=0;fontColor=#232F3E;gradientColor=none;strokeColor=#ffffff;fillColor=#232F3E;dashed=0;verticalLabelPosition=middle;verticalAlign=bottom;align=center;html=1;whiteSpace=wrap;fontSize=10;fontStyle=1;spacing=3;shape=mxgraph.aws4.productIcon;prIcon=mxgraph.aws4.lambda;" vertex="1" parent="1">
          <mxGeometry x="510" y="170" width="70" height="100" as="geometry" />
        </mxCell>
        <mxCell id="G0kwRpXOu8s8iO1yLka8-8" value="" style="sketch=0;points=[[0,0,0],[0.25,0,0],[0.5,0,0],[0.75,0,0],[1,0,0],[0,1,0],[0.25,1,0],[0.5,1,0],[0.75,1,0],[1,1,0],[0,0.25,0],[0,0.5,0],[0,0.75,0],[1,0.25,0],[1,0.5,0],[1,0.75,0]];outlineConnect=0;fontColor=#232F3E;gradientColor=#945DF2;gradientDirection=north;fillColor=#5A30B5;strokeColor=#ffffff;dashed=0;verticalLabelPosition=bottom;verticalAlign=top;align=center;html=1;fontSize=12;fontStyle=0;aspect=fixed;shape=mxgraph.aws4.resourceIcon;resIcon=mxgraph.aws4.glue;" vertex="1" parent="1">
          <mxGeometry x="625.35" y="170" width="78" height="78" as="geometry" />
        </mxCell>
        <mxCell id="G0kwRpXOu8s8iO1yLka8-9" value="" style="sketch=0;points=[[0,0,0],[0.25,0,0],[0.5,0,0],[0.75,0,0],[1,0,0],[0,1,0],[0.25,1,0],[0.5,1,0],[0.75,1,0],[1,1,0],[0,0.25,0],[0,0.5,0],[0,0.75,0],[1,0.25,0],[1,0.5,0],[1,0.75,0]];outlineConnect=0;fontColor=#232F3E;gradientColor=#FF4F8B;gradientDirection=north;fillColor=#BC1356;strokeColor=#ffffff;dashed=0;verticalLabelPosition=bottom;verticalAlign=top;align=center;html=1;fontSize=12;fontStyle=0;aspect=fixed;shape=mxgraph.aws4.resourceIcon;resIcon=mxgraph.aws4.sns;" vertex="1" parent="1">
          <mxGeometry x="502" y="30" width="78" height="78" as="geometry" />
        </mxCell>
        <mxCell id="G0kwRpXOu8s8iO1yLka8-10" value="" style="sketch=0;outlineConnect=0;fontColor=#232F3E;gradientColor=none;fillColor=#3F8624;strokeColor=none;dashed=0;verticalLabelPosition=bottom;verticalAlign=top;align=center;html=1;fontSize=12;fontStyle=0;aspect=fixed;pointerEvents=1;shape=mxgraph.aws4.bucket;" vertex="1" parent="1">
          <mxGeometry x="630.69" y="311" width="67.31" height="70" as="geometry" />
        </mxCell>
        <mxCell id="G0kwRpXOu8s8iO1yLka8-11" value="" style="sketch=0;outlineConnect=0;fontColor=#232F3E;gradientColor=none;fillColor=#4D27AA;strokeColor=none;dashed=0;verticalLabelPosition=bottom;verticalAlign=top;align=center;html=1;fontSize=12;fontStyle=0;aspect=fixed;pointerEvents=1;shape=mxgraph.aws4.glue_data_catalog;" vertex="1" parent="1">
          <mxGeometry x="381" y="460" width="72" height="78" as="geometry" />
        </mxCell>
        <mxCell id="G0kwRpXOu8s8iO1yLka8-12" value="Amazon Redshift" style="sketch=0;outlineConnect=0;fontColor=#232F3E;gradientColor=none;strokeColor=#ffffff;fillColor=#232F3E;dashed=0;verticalLabelPosition=middle;verticalAlign=bottom;align=center;html=1;whiteSpace=wrap;fontSize=10;fontStyle=1;spacing=3;shape=mxgraph.aws4.productIcon;prIcon=mxgraph.aws4.redshift;" vertex="1" parent="1">
          <mxGeometry x="742" y="520" width="80" height="110" as="geometry" />
        </mxCell>
        <mxCell id="G0kwRpXOu8s8iO1yLka8-13" value="Lambda to trigger Redshift" style="sketch=0;outlineConnect=0;fontColor=#232F3E;gradientColor=none;strokeColor=#ffffff;fillColor=#232F3E;dashed=0;verticalLabelPosition=middle;verticalAlign=bottom;align=center;html=1;whiteSpace=wrap;fontSize=10;fontStyle=1;spacing=3;shape=mxgraph.aws4.productIcon;prIcon=mxgraph.aws4.lambda;" vertex="1" parent="1">
          <mxGeometry x="752" y="311" width="68" height="109" as="geometry" />
        </mxCell>
        <mxCell id="bs6Itz5Vhmx6qRfHv7vp-1" value="" style="edgeStyle=orthogonalEdgeStyle;rounded=0;orthogonalLoop=1;jettySize=auto;html=1;" edge="1" parent="1" source="G0kwRpXOu8s8iO1yLka8-14" target="G0kwRpXOu8s8iO1yLka8-28">
          <mxGeometry relative="1" as="geometry" />
        </mxCell>
        <mxCell id="G0kwRpXOu8s8iO1yLka8-14" value="" style="outlineConnect=0;dashed=0;verticalLabelPosition=bottom;verticalAlign=top;align=center;html=1;shape=mxgraph.aws3.quicksight;fillColor=#00B7F4;gradientColor=none;" vertex="1" parent="1">
          <mxGeometry x="610" y="520" width="80" height="70" as="geometry" />
        </mxCell>
        <mxCell id="G0kwRpXOu8s8iO1yLka8-15" value="Glue data catalog raw-tables" style="text;html=1;strokeColor=none;fillColor=none;align=center;verticalAlign=middle;whiteSpace=wrap;rounded=0;" vertex="1" parent="1">
          <mxGeometry x="384" y="542.5" width="69" height="45" as="geometry" />
        </mxCell>
        <mxCell id="G0kwRpXOu8s8iO1yLka8-18" value="Glue crawler-Raw" style="text;html=1;strokeColor=none;fillColor=none;align=center;verticalAlign=middle;whiteSpace=wrap;rounded=0;" vertex="1" parent="1">
          <mxGeometry x="381" y="400" width="69" height="30" as="geometry" />
        </mxCell>
        <mxCell id="G0kwRpXOu8s8iO1yLka8-19" value="S3 Bucket" style="text;html=1;strokeColor=none;fillColor=none;align=center;verticalAlign=middle;whiteSpace=wrap;rounded=0;" vertex="1" parent="1">
          <mxGeometry x="143.65" y="390" width="60" height="30" as="geometry" />
        </mxCell>
        <mxCell id="G0kwRpXOu8s8iO1yLka8-23" value="Glue ETL" style="text;html=1;strokeColor=none;fillColor=none;align=center;verticalAlign=middle;whiteSpace=wrap;rounded=0;" vertex="1" parent="1">
          <mxGeometry x="629" y="250" width="69" height="30" as="geometry" />
        </mxCell>
        <mxCell id="G0kwRpXOu8s8iO1yLka8-24" value="Amazon SNS" style="text;html=1;strokeColor=none;fillColor=none;align=center;verticalAlign=middle;whiteSpace=wrap;rounded=0;" vertex="1" parent="1">
          <mxGeometry x="246" y="250" width="69" height="30" as="geometry" />
        </mxCell>
        <mxCell id="G0kwRpXOu8s8iO1yLka8-25" value="Cloud Watch" style="text;html=1;strokeColor=none;fillColor=none;align=center;verticalAlign=middle;whiteSpace=wrap;rounded=0;" vertex="1" parent="1">
          <mxGeometry x="382.5" y="250" width="69" height="30" as="geometry" />
        </mxCell>
        <mxCell id="G0kwRpXOu8s8iO1yLka8-26" value="Amazon SNS" style="text;html=1;strokeColor=none;fillColor=none;align=center;verticalAlign=middle;whiteSpace=wrap;rounded=0;" vertex="1" parent="1">
          <mxGeometry x="502" y="110" width="69" height="30" as="geometry" />
        </mxCell>
        <mxCell id="G0kwRpXOu8s8iO1yLka8-27" value="S3 Silver Bucket" style="text;html=1;strokeColor=none;fillColor=none;align=center;verticalAlign=middle;whiteSpace=wrap;rounded=0;" vertex="1" parent="1">
          <mxGeometry x="634.35" y="390" width="60" height="30" as="geometry" />
        </mxCell>
        <mxCell id="G0kwRpXOu8s8iO1yLka8-28" value="Quicksight" style="text;html=1;strokeColor=none;fillColor=none;align=center;verticalAlign=middle;whiteSpace=wrap;rounded=0;" vertex="1" parent="1">
          <mxGeometry x="620" y="610" width="60" height="30" as="geometry" />
        </mxCell>
        <mxCell id="G0kwRpXOu8s8iO1yLka8-30" value="" style="endArrow=classic;html=1;rounded=0;" edge="1" parent="1">
          <mxGeometry width="50" height="50" relative="1" as="geometry">
            <mxPoint x="274" y="320" as="sourcePoint" />
            <mxPoint x="274" y="290" as="targetPoint" />
          </mxGeometry>
        </mxCell>
        <mxCell id="G0kwRpXOu8s8iO1yLka8-32" value="" style="endArrow=classic;html=1;rounded=0;" edge="1" parent="1">
          <mxGeometry width="50" height="50" relative="1" as="geometry">
            <mxPoint x="315" y="361" as="sourcePoint" />
            <mxPoint x="370" y="360" as="targetPoint" />
          </mxGeometry>
        </mxCell>
        <mxCell id="G0kwRpXOu8s8iO1yLka8-34" value="" style="endArrow=classic;html=1;rounded=0;" edge="1" parent="1" target="G0kwRpXOu8s8iO1yLka8-1">
          <mxGeometry width="50" height="50" relative="1" as="geometry">
            <mxPoint x="110" y="385" as="sourcePoint" />
            <mxPoint x="160" y="335" as="targetPoint" />
            <Array as="points">
              <mxPoint x="110" y="355" />
            </Array>
          </mxGeometry>
        </mxCell>
        <mxCell id="G0kwRpXOu8s8iO1yLka8-36" value="" style="endArrow=classic;html=1;rounded=0;" edge="1" parent="1" target="G0kwRpXOu8s8iO1yLka8-3">
          <mxGeometry width="50" height="50" relative="1" as="geometry">
            <mxPoint x="200" y="365" as="sourcePoint" />
            <mxPoint x="250" y="315" as="targetPoint" />
          </mxGeometry>
        </mxCell>
        <mxCell id="G0kwRpXOu8s8iO1yLka8-37" value="" style="endArrow=classic;html=1;rounded=0;" edge="1" parent="1">
          <mxGeometry width="50" height="50" relative="1" as="geometry">
            <mxPoint x="410" y="391" as="sourcePoint" />
            <mxPoint x="410" y="450" as="targetPoint" />
          </mxGeometry>
        </mxCell>
        <mxCell id="G0kwRpXOu8s8iO1yLka8-39" value="" style="endArrow=classic;html=1;rounded=0;" edge="1" parent="1">
          <mxGeometry width="50" height="50" relative="1" as="geometry">
            <mxPoint x="413" y="310" as="sourcePoint" />
            <mxPoint x="413" y="280" as="targetPoint" />
          </mxGeometry>
        </mxCell>
        <mxCell id="G0kwRpXOu8s8iO1yLka8-41" value="" style="endArrow=classic;html=1;rounded=0;" edge="1" parent="1">
          <mxGeometry width="50" height="50" relative="1" as="geometry">
            <mxPoint x="460" y="208.5" as="sourcePoint" />
            <mxPoint x="510" y="208.5" as="targetPoint" />
          </mxGeometry>
        </mxCell>
        <mxCell id="G0kwRpXOu8s8iO1yLka8-44" value="" style="endArrow=classic;html=1;rounded=0;" edge="1" parent="1">
          <mxGeometry width="50" height="50" relative="1" as="geometry">
            <mxPoint x="580.69" y="208.5" as="sourcePoint" />
            <mxPoint x="630.69" y="208.5" as="targetPoint" />
          </mxGeometry>
        </mxCell>
        <mxCell id="G0kwRpXOu8s8iO1yLka8-45" value="" style="endArrow=classic;html=1;rounded=0;entryX=0.5;entryY=1;entryDx=0;entryDy=0;" edge="1" parent="1" source="G0kwRpXOu8s8iO1yLka8-7" target="G0kwRpXOu8s8iO1yLka8-26">
          <mxGeometry width="50" height="50" relative="1" as="geometry">
            <mxPoint x="530" y="160" as="sourcePoint" />
            <mxPoint x="580" y="160" as="targetPoint" />
          </mxGeometry>
        </mxCell>
        <mxCell id="G0kwRpXOu8s8iO1yLka8-46" value="" style="endArrow=classic;html=1;rounded=0;" edge="1" parent="1">
          <mxGeometry width="50" height="50" relative="1" as="geometry">
            <mxPoint x="663" y="260" as="sourcePoint" />
            <mxPoint x="663" y="319" as="targetPoint" />
          </mxGeometry>
        </mxCell>
        <mxCell id="G0kwRpXOu8s8iO1yLka8-48" value="" style="endArrow=classic;html=1;rounded=0;" edge="1" parent="1">
          <mxGeometry width="50" height="50" relative="1" as="geometry">
            <mxPoint x="698" y="346.5" as="sourcePoint" />
            <mxPoint x="753" y="345.5" as="targetPoint" />
          </mxGeometry>
        </mxCell>
        <mxCell id="G0kwRpXOu8s8iO1yLka8-49" value="" style="endArrow=classic;html=1;rounded=0;" edge="1" parent="1" target="G0kwRpXOu8s8iO1yLka8-12">
          <mxGeometry width="50" height="50" relative="1" as="geometry">
            <mxPoint x="786.9" y="420" as="sourcePoint" />
            <mxPoint x="785.0938775510205" y="479" as="targetPoint" />
          </mxGeometry>
        </mxCell>
        <mxCell id="G0kwRpXOu8s8iO1yLka8-50" value="" style="endArrow=classic;html=1;rounded=0;" edge="1" parent="1">
          <mxGeometry width="50" height="50" relative="1" as="geometry">
            <mxPoint x="742" y="555" as="sourcePoint" />
            <mxPoint x="694" y="554.5" as="targetPoint" />
          </mxGeometry>
        </mxCell>
        <mxCell id="G0kwRpXOu8s8iO1yLka8-51" value="SNS gets triggered only when glue crawler lambda gets success" style="text;html=1;strokeColor=none;fillColor=none;align=center;verticalAlign=middle;whiteSpace=wrap;rounded=0;" vertex="1" parent="1">
          <mxGeometry x="77.31" y="180" width="172.69" as="geometry" />
        </mxCell>
        <mxCell id="G0kwRpXOu8s8iO1yLka8-52" value="SNS gets triggered only when glue ETL lambda gets success" style="text;whiteSpace=wrap;html=1;" vertex="1" parent="1">
          <mxGeometry x="600" y="39" width="170" height="60" as="geometry" />
        </mxCell>
      </root>
    </mxGraphModel>
  </diagram>
</mxfile>
